<svg width="33" height="32" viewBox="0 0 33 32" fill="none" xmlns="http://www.w3.org/2000/svg">
<g filter="url(#filter0_d_2405_924)">
<g clip-path="url(#clip0_2405_924)">
<path d="M28.4885 12.2245C28.4885 11.2413 28.4069 10.5238 28.2301 9.77966H16.739V14.2176H23.484C23.3481 15.3205 22.6138 16.9815 20.9819 18.0976L20.959 18.2462L24.5923 20.9964L24.844 21.0209C27.1558 18.9347 28.4885 15.8653 28.4885 12.2245Z" fill="#4285F4"/>
<path d="M16.739 23.9176C20.0435 23.9176 22.8177 22.8545 24.844 21.0209L20.9819 18.0976C19.9484 18.8018 18.5612 19.2934 16.739 19.2934C13.5025 19.2934 10.7555 17.2074 9.77629 14.324L9.63276 14.3359L5.85483 17.1927L5.80542 17.3269C7.81804 21.2334 11.9521 23.9176 16.739 23.9176Z" fill="#34A853"/>
<path d="M9.77634 14.324C9.51797 13.5799 9.36844 12.7826 9.36844 11.9588C9.36844 11.1349 9.51797 10.3377 9.76275 9.5936L9.75591 9.43513L5.93062 6.53241L5.80547 6.59058C4.97597 8.21168 4.5 10.0321 4.5 11.9588C4.5 13.8855 4.97597 15.7058 5.80547 17.3269L9.77634 14.324Z" fill="#FBBC05"/>
<path d="M16.739 4.62403C19.0372 4.62403 20.5875 5.59402 21.4714 6.40461L24.9255 3.10928C22.8042 1.1826 20.0435 0 16.739 0C11.9521 0 7.81804 2.68406 5.80542 6.59056L9.7627 9.59359C10.7555 6.7102 13.5025 4.62403 16.739 4.62403Z" fill="#EB4335"/>
</g>
<rect x="5" y="0.5" width="23" height="23" stroke="black" shape-rendering="crispEdges"/>
</g>
<defs>
<filter id="filter0_d_2405_924" x="0.5" y="0" width="32" height="32" filterUnits="userSpaceOnUse" color-interpolation-filters="sRGB">
<feFlood flood-opacity="0" result="BackgroundImageFix"/>
<feColorMatrix in="SourceAlpha" type="matrix" values="0 0 0 0 0 0 0 0 0 0 0 0 0 0 0 0 0 0 127 0" result="hardAlpha"/>
<feOffset dy="4"/>
<feGaussianBlur stdDeviation="2"/>
<feComposite in2="hardAlpha" operator="out"/>
<feColorMatrix type="matrix" values="0 0 0 0 0 0 0 0 0 0 0 0 0 0 0 0 0 0 0.25 0"/>
<feBlend mode="normal" in2="BackgroundImageFix" result="effect1_dropShadow_2405_924"/>
<feBlend mode="normal" in="SourceGraphic" in2="effect1_dropShadow_2405_924" result="shape"/>
</filter>
<clipPath id="clip0_2405_924">
<rect x="4.5" width="24" height="24" fill="white"/>
</clipPath>
</defs>
</svg>
